<svg xmlns="http://www.w3.org/2000/svg" viewBox="0 0 1261.37 545.5"><defs><style>.a{fill:#1a1a1a;}.b{fill:#df378b;}</style></defs><path class="a" d="M847.71,565c-3.92-8.15-10.93-19.4-18.75-30-5.38,28.86-14.19,52.66-28.7,70.27-3.59-3.43-14-10.6-19.24-13.53C807,564.66,813.3,515.59,815.1,456.24l21.36.65c-.66,18.92-2,36.85-3.92,53.48,11.74,12.55,24,29,29.84,40.43Zm51.68-107.93c-1,18.75-2.28,36.19-4.57,52.33,5.71,26.41,17.61,59.84,40.44,75.82-4.4,3.75-11.58,12.22-14.51,17.93-15.82-13.37-26.58-34.08-33.59-54.94-6.52,23.31-16.14,42.38-30.49,56.9-3.42-3.27-13.86-10.44-19.24-13.54,30.17-26.08,38.16-74.18,40.44-135.32Z" transform="translate(-250.81 -314.05)"/><path class="a" d="M640.47,749.12H612.06v57.82H589.89V749.12H559.45c-2.9,21.45-11.45,43-35.8,58.4a89.75,89.75,0,0,0-17.24-15.8c19.56-11.73,27.53-27,30.72-42.6H507.28V729H539V696.8H511.77V676.94H636.41V696.8H612.06V729h28.41ZM589.89,729V696.8H560.76V729Z" transform="translate(-250.81 -314.05)"/><path class="a" d="M703.21,698.54c-1,25.79-3.91,46.66-9.42,63.47a118.43,118.43,0,0,1,11.45,13.63l-12.46,17.24a119.55,119.55,0,0,0-8-10.72,73.51,73.51,0,0,1-23.19,24.49c-2.75-5.07-8.12-12.75-12.17-16.66,9-4.93,15.94-12.9,21.3-23.34-6.52-6.66-13.33-13-19.42-18.55a316.36,316.36,0,0,0,7.1-31.45H650.9V697.38h10.72c1.3-9.28,2.32-18.55,2.9-27.25l19.85,1.16c-.87,8.41-2,17.25-3.47,26.09h6.81l3.48-.29Zm-25.65,18.11c-1.59,8.84-3.48,17.25-5.36,25.07,2,1.74,3.91,3.48,5.8,5.22a180,180,0,0,0,5.21-30.29Zm94.35,23.77c-.87-2.75-2-5.94-3.48-9.42-45.51,4.35-53.33,5.22-59.42,7.68-1.16-4.06-4.49-14.06-6.81-19.42,3.48-1,5.94-3.91,9.28-9,3.33-4.79,12.6-23.19,18-41l22,5.65a237.54,237.54,0,0,1-20.15,39.71l28-1.88c-3.19-5.36-6.52-10.58-9.85-15.07l16.81-8.41c10,12.75,19.56,29.57,23.77,41.45ZM710,744.77h69.85v61.88h-20v-5.5H729v5.5H710Zm19,18.4v19.57h30.87V763.17Z" transform="translate(-250.81 -314.05)"/><path class="a" d="M900.05,694.81c-.87,1.09-2.28,1.85-4.89,2.28-.76,45.65-2.07,63.26-8.48,69.89-4.24,4.24-9.24,6.09-17.39,6.09,0-5.11-.65-8.7-2.61-10.87-2.06-2.4-6.09-4.35-11.74-5.55l.11-1.3c5.22.43,12.61.87,15.43.87a5.4,5.4,0,0,0,4-1.41c3.91-3.48,4.89-23.48,5.54-60.43H863.31a84,84,0,0,1-19.89,22.93l-.65-.44v44c-.11,1-7.17,4-12.28,4H828.1v-8.58H814.73v7.5c0,1.63-5.55,5-11.85,5H800.6v-83l13.69,5.65c.55-6.09,1-14.67,1.31-20.87l21,5c-.54,2-2.06,2.72-4.67,2.72-3.26,3.8-8.15,9.24-12.06,13.48H827l6.74-7.5,13.37,10.54a7.74,7.74,0,0,1-4.35,2.39v18.15c5.11-11.52,10.32-29,12.72-45l20.21,5.87c-.43,1.42-1.85,2.29-4.35,2.29a107.15,107.15,0,0,1-6.19,12.82h13.59l8.15-8.26Zm-85.32,0v27H828.1v-27Zm13.37,58.47V724.81H814.73v28.47Zm22.49-39.88c34.35,7.93,19.68,34.56,6.31,22.93-.22-7.83-3.37-16.3-7.17-22.39Z" transform="translate(-250.81 -314.05)"/><path class="a" d="M1036.06,714.91c-3.77,20.87-9.56,38.26-18.11,52.61a72.75,72.75,0,0,0,30.43,21.31c-4.64,4-10.87,12.46-13.91,18.11a85.76,85.76,0,0,1-29.86-22c-8.55,9.13-19.13,16.52-31.88,22.32A101.76,101.76,0,0,0,959,789.41C973,784,984,776.65,992.44,767.09a154.39,154.39,0,0,1-12.9-33.77q-2.61,3.91-5.22,7.39a131.71,131.71,0,0,0-15.94-14.93,73.71,73.71,0,0,0,7.39-10.43H954.9v23.19l10.58-2.9,2.76,18.55c-4.35,1.3-8.85,2.75-13.34,4.06V806.8H934.76V764c-7.83,2.32-15.37,4.5-22,6.52L909,750.13c7.1-1.45,16.09-3.62,25.8-6.23V715.35h-7a145.49,145.49,0,0,1-5.8,23.19,142.88,142.88,0,0,0-14.63-10c4.49-12.76,6.66-33,7.53-52l17.39,2.75c-.43,5.36-.87,10.72-1.59,16.09h4.06V669.12H954.9v26.23h11.45v18.84c7-12.61,12-28.7,14.93-45.22l20.58,3.91a220.93,220.93,0,0,1-5.51,22h48.55v20Zm-41.59,0a141.84,141.84,0,0,0,10.58,32.47c4.34-9.42,7.39-20.15,9.56-32.47Z" transform="translate(-250.81 -314.05)"/><path class="a" d="M1333.43,782.3v20.58H1201.55V782.3h54.78V757.38H1218.8V737.09h37.53V714.91h-27.82a128.49,128.49,0,0,1-12.61,19.71,139.71,139.71,0,0,0-19-12.75c11.16-11.89,20.44-31.74,25.37-51.31l21.88,4.93a178.47,178.47,0,0,1-6.38,18.84h18.55V669.12h22v25.21h47.39v20.58h-47.39v22.18H1320v20.29h-41.6V782.3Z" transform="translate(-250.81 -314.05)"/><path class="a" d="M1367.78,742.16c-6-4.2-18.84-11.16-27.39-15.65l11.3-15.66c8,3.63,21.3,9.86,27.83,13.77Zm-26,48.84a411.29,411.29,0,0,0,27.54-45.22l15.51,14.06c-7.68,15.22-16.38,30.87-25.22,45.36Zm31.6-88.84c-5.65-4.2-18.12-11.16-26.09-15.94L1359.23,671c7.68,3.91,20.43,10.29,26.66,14.2Zm68.11,29.13v15.36h29.28v59.42h-20v-5.22h-39v5.8H1392.7v-60h28.84V731.29h-37.1V711.14h37.1V697.81c-8.84,1.31-17.68,2.32-26.23,3a79.27,79.27,0,0,0-5.94-18c24.35-2.32,50.44-7.24,66.52-14l15.94,16.52a191.07,191.07,0,0,1-30.29,8.84v16.95h35.37v20.15Zm9.28,34.35h-39v16.23h39Z" transform="translate(-250.81 -314.05)"/><path class="a" d="M1198.9,766.89s-.15,6.23-.44,8.7c-2.75,49.42-5.65,68.84-10.87,75.36-3.76,5.07-7.68,6.81-12.75,7.68-4.49.87-10.87,1-18,.87a49.65,49.65,0,0,0-5.8-19.71,126.13,126.13,0,0,0,12.9.73,5.92,5.92,0,0,0,5.36-2.61c3.05-3.48,5.66-17.54,7.54-51.31h-2.17c-8.41,31.31-22.9,56.23-42.61,71.74a112.19,112.19,0,0,0-15.94-11.16c19.56-12.75,32.6-34.35,39.42-60.58h-6.24c-5.65,17.83-15.79,32.61-27.82,42.18a92.77,92.77,0,0,0-7.83-6.24l.58,2.9c-15.36,6.52-32.32,13.34-45.94,18.7l-6.81-21.6c4.78-1.3,10.43-3.18,16.66-5.21v-41h-14.63V756.46h14.63v-32h19.57v32h13.48v19.85h-13.48v34.35l12.32-4.35,1.59,7.25a63.94,63.94,0,0,0,18.41-26.81c-4.49.29-8.7,1-9.71,2.32a166.69,166.69,0,0,0-8.55-19.42c4.63-.87,10.14-4.06,15.65-7.69a215.16,215.16,0,0,0,18.84-13.47h-33.62V728.63h56.66l4.35-1.59,14.64,11.88a294.13,294.13,0,0,1-35.22,28Z" transform="translate(-250.81 -314.05)"/><path class="a" d="M1120.8,447.14c32,9.85,82.22,19.09,122.56,23.09-8.93,8.63-20.94,24.95-26.79,35.11-40.65-6.77-93.62-22.79-130-39.42-28.95,13.86-61.9,25.25-93.62,33.88h84.07c-4.93-4.93-10.47-9.86-15.09-13.86l25.87-18.79c9.54,7.39,22.48,18.17,28.94,25.56l-9.54,7.09h66.52l5.85-2.16L1208.26,518c-16.94,16-42.19,31.41-66.83,44,12.32,3.7,23.1,7.39,32,10.78l-16.94,31.1c-31.72-13.24-95.47-32-141.35-42.18l16-26.8c16.94,3.08,37,7.39,57,12.63A421,421,0,0,0,1127,530.9H986.53V501.64c-7.08,1.85-14.17,3.39-20.94,4.93-5.24-9.85-14.78-24-24-33.87,36.34-6.16,80.07-16.94,114.56-30.8h-61.9V417.57h69.6v21.25A205.55,205.55,0,0,0,1090,425.27h-20V379.7H993.61V412H954.2V352.6H1070v-6.47H977V315h230.35v31.1h-93.62v6.47H1232V412H1190.7V379.7h-77v45.57h-18.78l25.56,16.32v-24h69.6V441.9h-69l4,2.47Zm-57.28-60.67v23.1H1001v-23.1Zm57,23.1v-23.1H1183v23.1Z" transform="translate(-250.81 -314.05)"/><path class="a" d="M512.35,608.69a41,41,0,0,1,7.57-.63c4.21,0,6.93.77,8.83,2.49a7.6,7.6,0,0,1,2.4,5.8,8,8,0,0,1-5.75,7.78v.14c2.35.82,3.76,3,4.48,6.16,1,4.26,1.72,7.2,2.36,8.38h-4.08c-.5-.86-1.18-3.49-2-7.29-.9-4.21-2.53-5.8-6.11-5.94h-3.72v13.23h-3.94Zm3.94,13.91h4c4.21,0,6.88-2.31,6.88-5.8,0-3.94-2.85-5.66-7-5.71a15.74,15.74,0,0,0-3.9.37Z" transform="translate(-250.81 -314.05)"/><path class="a" d="M550.31,628.57c.09,5.39,3.53,7.61,7.51,7.61a14.45,14.45,0,0,0,6.07-1.13l.68,2.85a17.62,17.62,0,0,1-7.29,1.36c-6.75,0-10.78-4.44-10.78-11s3.9-11.82,10.28-11.82c7.16,0,9.06,6.3,9.06,10.33a13.84,13.84,0,0,1-.14,1.85ZM562,625.72c0-2.54-1-6.48-5.53-6.48-4,0-5.79,3.72-6.11,6.48Z" transform="translate(-250.81 -314.05)"/><path class="a" d="M581.15,620.51a2.7,2.7,0,1,1,5.39,0,2.7,2.7,0,1,1-5.39,0Zm0,16a2.7,2.7,0,1,1,2.67,2.81A2.67,2.67,0,0,1,581.15,636.5Z" transform="translate(-250.81 -314.05)"/><path class="a" d="M623.85,608.28h3.94V635.5h13v3.31h-17Z" transform="translate(-250.81 -314.05)"/><path class="a" d="M660.85,610.73a2.47,2.47,0,0,1-4.93,0,2.43,2.43,0,0,1,2.49-2.49A2.37,2.37,0,0,1,660.85,610.73Zm-4.44,28.08V616.89h4v21.92Z" transform="translate(-250.81 -314.05)"/><path class="a" d="M678.74,638.81V619.92h-3.08v-3h3.08v-1c0-3.08.68-5.89,2.54-7.66a7.59,7.59,0,0,1,5.34-2,9.18,9.18,0,0,1,3.4.63l-.55,3.08a5.92,5.92,0,0,0-2.53-.5c-3.4,0-4.26,3-4.26,6.34v1.18H688v3h-5.3v18.89Z" transform="translate(-250.81 -314.05)"/><path class="a" d="M704.51,628.57c.09,5.39,3.53,7.61,7.52,7.61a14.52,14.52,0,0,0,6.07-1.13l.68,2.85a17.69,17.69,0,0,1-7.29,1.36c-6.75,0-10.78-4.44-10.78-11s3.89-11.82,10.28-11.82c7.15,0,9,6.3,9,10.33a16.27,16.27,0,0,1-.13,1.85Zm11.68-2.85c0-2.54-1-6.48-5.52-6.48-4,0-5.8,3.72-6.11,6.48Z" transform="translate(-250.81 -314.05)"/><path class="a" d="M761.66,610.73a2.47,2.47,0,0,1-4.93,0,2.43,2.43,0,0,1,2.49-2.49A2.37,2.37,0,0,1,761.66,610.73Zm-4.44,28.08V616.89h4v21.92Z" transform="translate(-250.81 -314.05)"/><path class="a" d="M779.14,622.82c0-2.26,0-4.12-.18-5.93h3.54l.22,3.62h.09a8.08,8.08,0,0,1,7.25-4.12c3,0,7.74,1.81,7.74,9.33v13.09h-4V626.17c0-3.53-1.32-6.47-5.07-6.47a5.66,5.66,0,0,0-5.35,4.07,5.79,5.79,0,0,0-.27,1.86v13.18h-4Z" transform="translate(-250.81 -314.05)"/><path class="a" d="M862.38,625.4c-.22-4.25-.5-9.37-.45-13.18h-.14c-1,3.58-2.3,7.39-3.84,11.6l-5.39,14.81h-3l-4.94-14.54c-1.45-4.3-2.67-8.24-3.53-11.87H841c-.09,3.81-.32,8.93-.59,13.5l-.82,13.09h-3.76L838,608.28h5l5.21,14.77c1.27,3.76,2.31,7.11,3.08,10.28h.13c.77-3.08,1.86-6.43,3.22-10.28l5.43-14.77h5l1.9,30.53h-3.85Z" transform="translate(-250.81 -314.05)"/><path class="a" d="M889.24,610.73a2.47,2.47,0,0,1-4.94,0,2.43,2.43,0,0,1,2.49-2.49A2.37,2.37,0,0,1,889.24,610.73Zm-4.44,28.08V616.89h4v21.92Z" transform="translate(-250.81 -314.05)"/><path class="a" d="M906.72,622.82c0-2.26-.05-4.12-.18-5.93h3.53l.23,3.62h.09a8.05,8.05,0,0,1,7.24-4.12c3,0,7.75,1.81,7.75,9.33v13.09h-4V626.17c0-3.53-1.31-6.47-5.07-6.47a5.65,5.65,0,0,0-5.34,4.07,5.51,5.51,0,0,0-.28,1.86v13.18h-4Z" transform="translate(-250.81 -314.05)"/><path class="a" d="M945.4,628.57c.09,5.39,3.53,7.61,7.51,7.61a14.45,14.45,0,0,0,6.07-1.13l.68,2.85a17.62,17.62,0,0,1-7.29,1.36c-6.75,0-10.78-4.44-10.78-11s3.9-11.82,10.28-11.82c7.16,0,9.06,6.3,9.06,10.33a13.84,13.84,0,0,1-.14,1.85Zm11.68-2.85c0-2.54-1-6.48-5.53-6.48-4,0-5.79,3.72-6.11,6.48Z" transform="translate(-250.81 -314.05)"/><path class="a" d="M977.19,623.73c0-2.58-.05-4.8-.18-6.84h3.48l.14,4.3h.18a6.59,6.59,0,0,1,6.07-4.8,4.31,4.31,0,0,1,1.13.14v3.76a6,6,0,0,0-1.36-.14c-2.81,0-4.8,2.13-5.34,5.12a11.26,11.26,0,0,0-.18,1.85v11.69h-3.94Z" transform="translate(-250.81 -314.05)"/><path class="a" d="M1015.23,638.81l-.32-2.76h-.13a8.18,8.18,0,0,1-6.71,3.26c-4.43,0-6.7-3.13-6.7-6.3,0-5.3,4.71-8.2,13.18-8.15v-.45c0-1.81-.5-5.08-5-5.08a11,11,0,0,0-5.71,1.63l-.9-2.62a13.56,13.56,0,0,1,7.2-2c6.7,0,8.33,4.57,8.33,9v8.19a31.12,31.12,0,0,0,.36,5.26Zm-.59-11.19c-4.35-.09-9.28.68-9.28,4.94a3.52,3.52,0,0,0,3.76,3.8,5.44,5.44,0,0,0,5.29-3.67,4,4,0,0,0,.23-1.26Z" transform="translate(-250.81 -314.05)"/><path class="a" d="M1036.24,606.65h4v32.16h-4Z" transform="translate(-250.81 -314.05)"/><path class="a" d="M1083.25,611.64H1074v-3.36h22.6v3.36h-9.33v27.17h-4Z" transform="translate(-250.81 -314.05)"/><path class="a" d="M1127.77,627.67c0,8.1-5.62,11.64-10.91,11.64-5.94,0-10.51-4.35-10.51-11.28,0-7.34,4.8-11.64,10.87-11.64C1123.51,616.39,1127.77,621,1127.77,627.67Zm-17.39.22c0,4.8,2.76,8.43,6.66,8.43s6.65-3.58,6.65-8.52c0-3.71-1.85-8.42-6.56-8.42S1110.38,623.73,1110.38,627.89Z" transform="translate(-250.81 -314.05)"/><path class="a" d="M1145.39,616.89l2.9,11.14c.63,2.45,1.22,4.71,1.63,7h.13c.5-2.21,1.22-4.57,2-6.92l3.58-11.19h3.35l3.4,11c.81,2.63,1.44,4.94,1.94,7.15h.14a67.36,67.36,0,0,1,1.67-7.11l3.13-11h3.94l-7.07,21.92h-3.62l-3.35-10.46c-.77-2.45-1.4-4.62-1.95-7.2h-.09a64.1,64.1,0,0,1-2,7.24l-3.53,10.42h-3.63l-6.61-21.92Z" transform="translate(-250.81 -314.05)"/><path class="a" d="M1188.46,622.82c0-2.26,0-4.12-.18-5.93h3.53l.22,3.62h.09a8.08,8.08,0,0,1,7.25-4.12c3,0,7.75,1.81,7.75,9.33v13.09h-4V626.17c0-3.53-1.31-6.47-5.07-6.47a5.66,5.66,0,0,0-5.35,4.07,5.79,5.79,0,0,0-.27,1.86v13.18h-4Z" transform="translate(-250.81 -314.05)"/><path class="a" d="M1246.24,638.81V619.92h-3.08v-3h3.08v-1c0-3.08.68-5.89,2.54-7.66a7.61,7.61,0,0,1,5.34-2,9.18,9.18,0,0,1,3.4.63l-.54,3.08a6,6,0,0,0-2.54-.5c-3.4,0-4.26,3-4.26,6.34v1.18h5.3v3h-5.3v18.89Z" transform="translate(-250.81 -314.05)"/><path class="a" d="M1270.38,623.73c0-2.58,0-4.8-.18-6.84h3.49l.13,4.3h.18a6.59,6.59,0,0,1,6.07-4.8,4.39,4.39,0,0,1,1.14.14v3.76a6.05,6.05,0,0,0-1.36-.14c-2.81,0-4.8,2.13-5.35,5.12a11.26,11.26,0,0,0-.18,1.85v11.69h-3.94Z" transform="translate(-250.81 -314.05)"/><path class="a" d="M1315.9,627.67c0,8.1-5.62,11.64-10.92,11.64-5.93,0-10.51-4.35-10.51-11.28,0-7.34,4.81-11.64,10.87-11.64C1311.64,616.39,1315.9,621,1315.9,627.67Zm-17.39.22c0,4.8,2.76,8.43,6.65,8.43s6.66-3.58,6.66-8.52c0-3.71-1.86-8.42-6.57-8.42S1298.51,623.73,1298.51,627.89Z" transform="translate(-250.81 -314.05)"/><path class="a" d="M1332.25,622.82c0-2.26,0-4.12-.19-5.93h3.49l.18,3.53h.14a7.55,7.55,0,0,1,6.88-4,6.48,6.48,0,0,1,6.21,4.39h.09a9.12,9.12,0,0,1,2.44-2.85,7.49,7.49,0,0,1,4.85-1.54c2.9,0,7.2,1.9,7.2,9.51v12.91h-3.9V626.4c0-4.21-1.54-6.75-4.75-6.75a5.16,5.16,0,0,0-4.71,3.62,6.65,6.65,0,0,0-.32,2v13.54H1346V625.67c0-3.48-1.54-6-4.58-6a6,6,0,0,0-5.25,5.93v13.23h-3.89Z" transform="translate(-250.81 -314.05)"/><path class="a" d="M1399.77,636.5l9.92-12.91c1-1.18,1.85-2.22,2.85-3.39v-.1h-11.87v-3.21h16.72l-.05,2.49-9.78,12.73c-.91,1.22-1.81,2.31-2.81,3.44v.09h12.82v3.17h-17.8Z" transform="translate(-250.81 -314.05)"/><path class="a" d="M1434.87,628.57c.09,5.39,3.53,7.61,7.52,7.61a14.43,14.43,0,0,0,6.06-1.13l.68,2.85a17.62,17.62,0,0,1-7.29,1.36c-6.75,0-10.78-4.44-10.78-11s3.9-11.82,10.28-11.82c7.16,0,9.06,6.3,9.06,10.33a16.27,16.27,0,0,1-.13,1.85Zm11.68-2.85c0-2.54-1-6.48-5.52-6.48-4,0-5.8,3.72-6.12,6.48Z" transform="translate(-250.81 -314.05)"/><path class="a" d="M1466.66,623.73c0-2.58,0-4.8-.18-6.84H1470l.13,4.3h.18a6.59,6.59,0,0,1,6.07-4.8,4.31,4.31,0,0,1,1.13.14v3.76a5.9,5.9,0,0,0-1.35-.14c-2.81,0-4.8,2.13-5.35,5.12a11.26,11.26,0,0,0-.18,1.85v11.69h-3.94Z" transform="translate(-250.81 -314.05)"/><path class="a" d="M1512.18,627.67c0,8.1-5.62,11.64-10.92,11.64-5.93,0-10.51-4.35-10.51-11.28,0-7.34,4.8-11.64,10.87-11.64C1507.92,616.39,1512.18,621,1512.18,627.67Zm-17.39.22c0,4.8,2.76,8.43,6.65,8.43s6.66-3.58,6.66-8.52c0-3.71-1.86-8.42-6.57-8.42S1494.79,623.73,1494.79,627.89Z" transform="translate(-250.81 -314.05)"/><path class="a" d="M730.18,437.84c.22,12.31-9.06,21.94-21.58,22.41-13,.5-23.52-8.84-23.91-21.26-.39-12.76,9.11-22.63,22.13-23C719.64,415.67,730,425.31,730.18,437.84Z" transform="translate(-250.81 -314.05)"/><path class="a" d="M707.16,578c-13.45-.13-22.28-8.61-22.13-21.26a22.06,22.06,0,0,1,22.31-21.69c11.75,0,22.36,10.29,22.5,21.9C730,568.91,720,578.15,707.16,578Z" transform="translate(-250.81 -314.05)"/><path class="b" d="M476.75,536.43c-18.71-24.85-32.7-53.35-58.07-73.86,12.25-5.26,23.89-9.93,34.18-17.22,41.72-29.54,40.09-89.11-3.24-115.94C436,321,421.19,316.72,405.21,315.57c-35.09-2.54-70.2-1.12-105.3-1.15H251c-.07,1.18-.13,2.35-.19,3.53,4.16,3.08,9.53,2.44,14.23,3.72,15.29,4.14,21.4,10.5,22.94,26,.94,9.48,1.6,19,1.63,28.54q.25,75.66.1,151.33c0,18.14.14,36.32-5.64,53.68h57c-5-7.63-6.1-15.09-6.65-23-1.88-27.24-.44-54.53-1.72-81.74-.51-10.83,3.78-12.93,12.85-11.16,2,.4,4,.62,6.05,1,17.88,3.12,28.59,16.31,39.86,28.59,22.24,24.23,38.78,52.6,57.54,79.36,1.91,2.72,3.12,6.81,7,6.86,18.83.24,37.67.11,56.51.11C497.7,567.47,488,551.34,476.75,536.43Zm-137.07-77c-5.61,0-6.89-2.11-6.83-7.19.2-19.76.08-39.51.08-59.27.25,0,.05-40.09-.09-60.18-.06-8.88,4.48-12.57,13.64-12.63,17.17-.11,34,.67,50.09,7.48,26.39,11.16,41.13,33.61,40.71,62.51-.4,27.73-16.3,50.49-42.44,60.4C377.09,457.24,358.56,459.25,339.68,459.39Z" transform="translate(-250.81 -314.05)"/><path class="b" d="M653.06,554c-24.66,26.22-72.86,23.61-96.65-5-15.88-19.14-20.7-41.57-20-65.88.2-7.81,2.33-10.37,10.48-10.3,36.15.35,72.3-.13,108.45-.05,6,0,8.69-.89,7.09-7.91-2-8.71-4.22-17.15-9-24.81-18.95-30.54-68.42-41.86-102.16-23.33-62.7,34.44-58.92,122.21-16.21,160.87,3.62,3.28,7.51,4.1,12.13,4.07,28.65-.2,57.3-.23,86-.37,3,0,6.21.67,8.83-1.55,12.83-10.88,20.73-24.54,22.64-41.69C660.77,543.41,657.52,549.3,653.06,554ZM539.17,461.21c5.54-16.6,14.71-30.63,29.24-40.59,10.13-6.95,23.09-6.54,37.75-1.17,12.41,4.54,17.57,16.59,17.53,30.07,0,12-3.68,18-15.52,18.45-10.86.41-53.69-.22-64.21,0C538.57,468.07,537.55,466.05,539.17,461.21Z" transform="translate(-250.81 -314.05)"/></svg>